<svg xmlns="http://www.w3.org/2000/svg" data-name="Layer 2" viewBox="0 0 100 125" x="0px" y="0px"><title>Artboard 61</title><path d="M91.22,45.19A41.61,41.61,0,0,0,74.54,16.53h0A41.18,41.18,0,0,0,50,8.5,41.5,41.5,0,0,0,24.56,82.79h0A41.09,41.09,0,0,0,50,91.5a42,42,0,0,0,6.8-.56h0A41.52,41.52,0,0,0,91.5,50,42.24,42.24,0,0,0,91.22,45.19ZM71.67,71.69l-15,8.88L41.42,73.12l0-2.12-.25-13.7,15.93-9.75,14.85,8ZM56.53,28.8l-.47,7.91L55.56,45l-16,9.76-4.07-2.42-9.35-5.56.55-16.29,13.58-8.67L41.45,21l10.36,5.33ZM17.74,60l7.34-10.45,5.15,3.06,7.9,4.7.28,15.43L25.66,74.5,19.75,63.69ZM73,52.73l-2.83-1.52L58.56,45l.94-15.73,10.37-1.47L73,27.3l8.35,14.43.28.48L76.07,49Zm14.78-9.94-3.29-1.57-3.84-6.64L75.3,25.26l0-1.84-.05-2.51A38.65,38.65,0,0,1,87.82,42.78ZM72.17,18.52l0,1.93.08,3.92-13.94,2-10-5.12-5.48-2.82.17-3.79.11-2.53A38.85,38.85,0,0,1,50,11.5,38.19,38.19,0,0,1,72.17,18.52Zm-32-5.75L40,16.47l-.09,2L26.06,27.31l-.75.48L21,24.7A38.61,38.61,0,0,1,40.16,12.77ZM19.1,27l3,2.16,1.62,1.16-.47,13.88-.1,2.84L15.55,57.92l-1.45-.86-2.17-1.29A38.89,38.89,0,0,1,11.5,50,38,38,0,0,1,19.1,27ZM12.75,59.74,14.86,61l4,7.29,4.54,8.29L23.55,78A38.33,38.33,0,0,1,12.75,59.74ZM26.9,80.8l-.26-2.26-.13-1.13L39.06,75.7l.63-.09,15.54,7.58,0,1.42-.1,3.55A38.91,38.91,0,0,1,50,88.5,38.11,38.11,0,0,1,26.9,80.8Zm31.21,6.84.12-4.5,15-8.9L78,76.37l.06,0A38.51,38.51,0,0,1,58.11,87.64Zm22-13.6L77.71,73l-3-1.38.11-7.35.13-9.07,1.54-1.88,7.43-9.08,2.78,1.33,1.67.8c.12,1.22.17,2.45.17,3.65A38.51,38.51,0,0,1,80.07,74Z"/></svg>