<svg xmlns:dc="http://purl.org/dc/elements/1.1/" xmlns:cc="http://creativecommons.org/ns#" xmlns:rdf="http://www.w3.org/1999/02/22-rdf-syntax-ns#" xmlns:svg="http://www.w3.org/2000/svg" xmlns="http://www.w3.org/2000/svg" xmlns:sodipodi="http://sodipodi.sourceforge.net/DTD/sodipodi-0.dtd" xmlns:inkscape="http://www.inkscape.org/namespaces/inkscape" viewBox="0 0 16.933333 21.166666250000002" version="1.1" x="0px" y="0px"><svg:g style="" display="inline"><svg:path style="color:#000000;font-style:normal;font-variant:normal;font-weight:normal;font-stretch:normal;font-size:medium;line-height:normal;font-family:sans-serif;font-variant-ligatures:normal;font-variant-position:normal;font-variant-caps:normal;font-variant-numeric:normal;font-variant-alternates:normal;font-feature-settings:normal;text-indent:0;text-align:start;text-decoration:none;text-decoration-line:none;text-decoration-style:solid;text-decoration-color:#000000;letter-spacing:normal;word-spacing:normal;text-transform:none;writing-mode:lr-tb;direction:ltr;text-orientation:mixed;dominant-baseline:auto;baseline-shift:baseline;text-anchor:start;white-space:normal;shape-padding:0;clip-rule:nonzero;display:inline;overflow:visible;visibility:visible;opacity:1;isolation:auto;mix-blend-mode:normal;color-interpolation:sRGB;color-interpolation-filters:linearRGB;solid-color:#000000;solid-opacity:1;vector-effect:none;fill:#000000;fill-opacity:1;fill-rule:nonzero;stroke:none;stroke-width:1.99999988;stroke-linecap:butt;stroke-linejoin:round;stroke-miterlimit:4;stroke-dasharray:none;stroke-dashoffset:0;stroke-opacity:1;color-rendering:auto;image-rendering:auto;shape-rendering:auto;text-rendering:auto;enable-background:accumulate" d="m 10.496094,19.960938 c -0.296165,-0.0023 -0.7036515,0.01188 -1.1503909,0.08008 -0.8934784,0.136396 -2.0620106,0.47277 -2.828125,1.505859 -0.4550967,0.613689 -0.7495334,1.431787 -1.1132812,2.583984 -0.3637478,1.152198 -0.7161906,2.560839 -0.9746094,4.044922 -0.4456104,2.559114 -0.7070674,5.296252 0.095703,7.378907 0.011486,0.04919 0.1828773,0.777216 0.4648438,1.621093 0.1458028,0.436363 0.3202164,0.900835 0.5234375,1.328125 0.065696,0.138131 0.1398042,0.26585 0.2109375,0.396485 l 0.4140625,4.195312 c 0.04749,0.514632 0.4792739,0.90832 0.9960937,0.908203 h 2.6054688 c 0.5168197,1.17e-4 0.9486037,-0.393571 0.9960937,-0.908203 l 0.207031,-2.097656 c 0.829941,0.14868 1.735541,0.293884 2.75,0.441406 l 0.261719,2.660156 c 0.05126,0.511537 0.481996,0.900894 0.996094,0.900391 h 2.607422 c 0.511109,-0.0035 0.937336,-0.391814 0.988281,-0.900391 l 0.201172,-2.017578 c 3.942669,0.44054 8.475355,0.816637 13.181641,1.060547 l 0.193359,1.953125 c 0.05134,0.511468 0.482054,0.900901 0.996094,0.900391 h 2.605468 c 0.511108,-0.0035 0.937335,-0.391818 0.988282,-0.900391 l 0.175781,-1.755859 c 0.994899,0.01463 1.94743,0.01012 2.86914,-0.0078 l 0.173829,1.763672 c 0.05133,0.512289 0.483195,0.901899 0.998047,0.900391 h 2.605468 c 0.514103,5.02e-4 0.94484,-0.388851 0.996094,-0.900391 l 0.201172,-2.029297 c 1.043882,-0.09297 2.028357,-0.203698 2.949219,-0.332031 l 0.134765,1.365234 C 47.867657,44.61115 48.298397,45.000503 48.8125,45 h 2.605469 c 0.514851,0.0015 0.946721,-0.388102 0.998047,-0.900391 l 0.228515,-2.322265 c 2.528598,-0.641073 4.274428,-1.351148 5.265625,-1.884766 0.376441,-0.202658 1.14475,-0.592908 1.542969,-1.470703 0.398219,-0.877799 0.390626,-2.01347 -0.05859,-3.660156 a 1.0001,1.0001 0 0 0 -0.0059,-0.01953 C 59.378761,34.265497 59.262761,33.741613 58.9375,33.240234 57.816209,31.51189 54.954791,30.024467 47.886719,28.701172 l -18.38086,-7.353516 c 0,0 -0.0078,9e-6 -0.0078,0 -0.006,-0.0027 -0.955498,-0.417073 -2.28125,-0.308594 -1.329965,0.108825 -3.117122,0.71359 -5.027344,2.457032 -2.46353,2.248439 -4.645468,3.591239 -6.074219,3.46289 -0.714375,-0.06417 -1.365088,-0.398347 -2.103515,-1.359375 -0.738427,-0.961027 -1.493884,-2.556361 -2.164063,-4.90039 a 1.0001,1.0001 0 0 0 -0.871094,-0.716797 c 0,0 -0.184304,-0.0192 -0.480468,-0.02148 z m -0.4980471,2.02539 c 0.086261,-0.001 0.1577101,0.0034 0.2636721,0.0039 0.640056,2.002819 1.313044,3.723107 2.162109,4.828125 0.978988,1.274107 2.209417,2.015648 3.513672,2.132813 2.608509,0.23433 5.025332,-1.632564 7.595703,-3.978516 1.629861,-1.487558 2.952323,-1.868305 3.845703,-1.941406 0.89338,-0.0731 1.277344,0.132813 1.277344,0.132812 a 1.0001,1.0001 0 0 0 0.05273,0.02148 l 2.279297,0.912109 -1.009765,0.771485 a 1.0001,1.0001 0 1 0 1.203125,1.58789 l 1.970703,-1.49414 2.628906,1.052734 -1.101562,0.839844 a 1.0001,1.0001 0 1 0 1.203124,1.58789 l 2.0625,-1.5625 2.775391,1.111329 -0.96875,0.738281 a 1.0010023,1.0010023 0 0 0 1.210938,1.59375 l 1.921875,-1.464844 3.039062,1.214844 -0.960937,0.730469 a 1.0010023,1.0010023 0 1 0 1.210937,1.59375 l 2.091797,-1.59375 c 6.304489,1.2673 8.518836,2.805694 8.988281,3.529296 0.246539,0.380006 0.184414,0.510018 0.125,0.671875 -0.04997,0.136162 -0.09097,0.178651 -0.109375,0.199219 -1.395942,1.147817 -5.293513,2.047719 -9.353515,2.40625 C 43.84622,37.970712 39.577707,37.92912 37.189449,37.83202 30.793809,37.572005 25.107447,37.140372 20.400391,36.695312 20.261274,36.53798 17.928269,33.900847 15.353516,31.091797 14.027381,29.644987 12.662291,28.176063 11.537109,27.025391 10.974518,26.450055 10.470471,25.953787 10.054688,25.570312 9.6389043,25.186838 9.4369957,24.946063 8.9472656,24.722656 8.4240672,24.483983 7.9172454,24.377836 7.4628906,24.333984 7.7595058,23.489979 8.0653036,22.808926 8.1191406,22.736328 8.3891501,22.372227 9.008702,22.116 9.640625,22.019531 c 0.1690734,-0.02581 0.2711608,-0.03215 0.3574219,-0.0332 z m -3.1015625,4.308594 c 0.3176484,-0.0068 0.7526463,0.03826 1.2167968,0.25 -0.170691,-0.07787 0.2099829,0.158815 0.5820313,0.501953 0.3720491,0.343136 0.8614595,0.819732 1.4101565,1.380859 1.097393,1.122254 2.455178,2.577408 3.773437,4.015625 1.344518,1.466866 2.621423,2.887223 3.576172,3.955079 C 16.454232,36.293522 15.499142,36.194542 14.623047,36.09375 14.461739,35.702884 14.249719,35.346516 14.054688,35.027344 13.609133,34.298185 13.125,33.742188 13.125,33.742188 L 9.0507812,29.041016 9.0351562,29.025391 C 8.2058023,28.14475 7.3681732,27.631084 6.6503906,27.328125 c 0.076205,-0.35215 0.1468585,-0.699334 0.2304688,-1.03125 0.00647,-1.85e-4 0.00906,-0.0018 0.015625,-0.002 z m -0.6210938,3.070312 c 0.3921928,0.214268 0.8317225,0.525631 1.2988282,1.019532 0.0033,0.0035 0.00452,0.0024 0.00781,0.0059 l 4.0292972,4.658203 c 0,0 0.269964,0.334312 0.554688,0.753906 C 8.8535939,35.39007 6.8784393,35.074698 6.6660156,35.041016 6.1309572,33.920056 5.9779297,31.694288 6.2753906,29.365234 Z m 0.859375,7.800782 c 3.3063214,0.486901 14.6958024,2.044834 29.9746094,2.666015 2.464273,0.100196 6.774692,0.134746 10.976563,-0.236328 3.708828,-0.327533 7.287941,-0.8567 9.617187,-2.253906 -0.01995,0.109816 -0.04543,0.194742 -0.07227,0.253906 -0.112365,0.247718 -0.263894,0.319418 -0.671875,0.539063 -2.014363,1.084448 -9.101563,3.670668 -22.255859,3.152343 C 28.086402,41.026386 21.505217,40.443757 16.439453,39.802734 13.906571,39.482223 11.751022,39.146104 10.171875,38.828125 9.3823018,38.669132 8.7354317,38.516685 8.2753906,38.378906 7.8153495,38.241127 7.5045497,38.046294 7.6113281,38.134766 7.65449,38.170528 7.4701253,37.951516 7.3222656,37.640625 7.2584695,37.506487 7.1992359,37.325378 7.1347656,37.166016 Z m 0.7441406,3.173828 c 0.3046445,0.08713 0.7115635,0.175256 1.0917969,0.261718 L 8.8320312,42.003906 H 8.0429688 Z m 7.8496098,1.384765 c 0.163445,0.0212 0.294307,0.04337 0.460937,0.06445 0.178854,0.02263 0.389855,0.04396 0.572266,0.06641 L 16.650391,43 H 15.853516 Z M 50.585938,42.244141 50.509766,43 h -0.789063 l -0.05664,-0.580078 c 0.31759,-0.05689 0.621655,-0.115755 0.921875,-0.175781 z m -7.88086,0.970703 -0.07813,0.789062 h -0.791015 l -0.07227,-0.734375 c 0.32214,-0.01469 0.629094,-0.03631 0.941406,-0.05469 z m -8.759766,0.0293 c 0.226604,0.0097 0.448986,0.02622 0.675782,0.03516 0.0911,0.0036 0.175083,0.0045 0.265625,0.0078 l -0.07031,0.716797 h -0.796875 z" transform="scale(0.26458333)"/></svg:g></svg>